<svg width="140" height="28" viewBox="0 0 140 28" fill="none" xmlns="http://www.w3.org/2000/svg">
<g id="Logo" clip-path="url(#clip0_1084_7923)">
<path id="Lum" d="M54.8971 8.79714H59.0743V22.5343H54.8971V20.3086H54.6771L51.9571 22.56C51.6828 22.6686 51.4086 22.7257 51.0514 22.7257C48.0286 22.7257 46.5171 20.6657 46.5171 17.5057V8.79714H50.6943V16.5171C50.6943 18.3029 51.4086 19.0457 52.7828 19.0457C54.1571 19.0457 54.8971 18.3029 54.8971 16.5171V8.79714ZM111.849 15.64C111.849 20.3914 108.883 22.7286 105.943 22.7286C105.614 22.7286 105.311 22.6743 105.037 22.5629L102.317 20.3114H102.097V26.4114H97.92V8.82571H102.097V10.8857C102.4 10.3086 103.471 8.60571 105.943 8.60571C108.966 8.60571 111.849 10.8029 111.849 15.64ZM107.26 15.64C107.26 13.36 106.16 12.2057 104.569 12.2057C102.977 12.2057 101.74 13.36 101.74 15.64C101.74 17.92 102.977 19.0457 104.569 19.0457C106.16 19.0457 107.26 17.8914 107.26 15.64ZM40.7229 22.5343H44.9V3.55143H40.7229V22.5343ZM76.52 8.79714H72.18V12.34H72.0143L67.7828 8.79714H60.6686V22.5343H64.8457V14.8429C64.8457 13.0286 65.34 12.2886 66.9057 12.2886C68.3886 12.2886 68.9657 12.9486 68.9657 14.8429V22.5343H73.1428V14.8429C73.1428 13.0286 73.6371 12.2886 75.2314 12.2886C76.7428 12.2886 77.2657 12.9486 77.2657 14.8429V22.5343H81.4428V14.1C81.4428 10.9686 79.4657 8.79714 76.5257 8.79714H76.52ZM126.766 15.64C126.766 20.3914 123.88 22.7286 120.914 22.7286C120.611 22.7286 120.283 22.6743 119.98 22.5629L117.177 20.3114H116.986V26.4114H112.809V8.82571H116.986V10.8857H117.069C117.26 10.3086 118.389 8.60571 120.914 8.60571C123.991 8.60571 126.766 10.8029 126.766 15.64ZM122.177 15.64C122.177 13.36 121.051 12.2057 119.457 12.2057C117.974 12.2057 116.629 13.36 116.629 15.64C116.629 17.92 117.891 19.0457 119.457 19.0457C121.023 19.0457 122.177 17.8914 122.177 15.64ZM134.046 14.1286C132.151 13.7171 131.437 13.36 131.437 12.7543C131.437 12.1486 131.903 11.7114 133.14 11.7114C134.377 11.7114 135.034 12.3971 135.117 12.7543H138.826C138.551 10.6943 137.04 8.60571 133.14 8.60571C129.24 8.60571 127.563 10.5 127.563 12.6714C127.563 15.1714 130.474 16.2971 132.729 16.9029C134.24 17.3429 135.394 17.6171 135.394 18.4143C135.394 19.2114 134.626 19.6771 133.417 19.6771C131.906 19.6771 131.383 18.8543 131.166 18.1657H127.237C127.429 20.2543 128.94 22.7257 133.5 22.7257C137.32 22.7257 139.351 20.7486 139.351 18.22C139.351 15.8571 137.4 14.9229 134.049 14.1257L134.046 14.1286ZM92.1514 8.82571H96.3286V22.5343H92.1514V20.3914C91.8486 20.9686 90.7514 22.7257 88.2514 22.7257C85.2286 22.7257 82.4 20.4743 82.4 15.6657C82.4 10.8571 85.2571 8.60571 88.2514 8.60571C88.6086 8.60571 88.9114 8.63428 89.1857 8.74286L91.9343 10.94H92.1543V8.82571H92.1514ZM91.8771 15.6657C91.8771 13.3571 90.64 12.2029 89.0486 12.2029C87.4571 12.2029 86.3571 13.3571 86.3571 15.6657C86.3571 17.9743 87.4571 19.0457 89.0486 19.0457C90.56 19.0457 91.8771 17.9457 91.8771 15.6657ZM6.19714 0L0 3.54V10.6229L4.86857 13.4371V6.30857L11.0171 2.78L6.19714 0ZM7.96857 18.6657V24.3229L14.1657 27.8857L20.3629 24.3229V18.6657L14.1657 22.2229L7.96857 18.6657ZM7.96857 8.14571V15.2286L14.1657 18.7686L20.3629 15.2286V8.14571L14.1657 4.60571L7.96857 8.14571ZM17.3171 2.78286L23.46 6.30571V13.4343L28.3286 10.62V3.54L22.1314 0L17.3171 2.78286Z" fill="#191515"/>
</g>
<defs>
<clipPath id="clip0_1084_7923">
<rect width="139.429" height="28" fill="white"/>
</clipPath>
</defs>
</svg>
